<svg width="265" height="264" viewBox="0 0 265 264" fill="none" xmlns="http://www.w3.org/2000/svg">
<g clip-path="url(#clip0_22477_105804)">
<rect x="0.863281" width="263.636" height="263.636" fill="#EEEEEE"/>
<g clip-path="url(#clip1_22477_105804)">
<rect x="13.7422" y="11.3633" width="238.552" height="302.572" rx="15.8586" fill="white"/>
<g clip-path="url(#clip2_22477_105804)">
<rect x="26.957" y="24.5791" width="79.2929" height="79.2929" rx="15.8586" fill="black"/>
<path d="M87.9132 55.8316C87.9132 55.8316 87.9054 55.8082 87.8976 55.7926C87.8118 55.5426 87.7103 55.1443 87.6166 54.6523C87.6166 54.6445 87.6166 54.6366 87.6166 54.6288C87.1796 53.0746 86.5708 51.6375 85.7904 50.2941C85.7825 50.2941 85.7826 50.2785 85.7747 50.2707C85.7045 49.8021 85.6499 49.3803 85.6108 49.0445C85.603 48.9664 85.5952 48.8961 85.5952 48.8336C85.5796 48.7164 85.5718 48.6149 85.564 48.529C85.5406 48.1385 85.4313 47.8026 85.244 47.4746C84.3153 45.7954 82.848 44.8191 81.0451 44.3036C80.8812 44.2567 80.7095 44.2177 80.5456 44.1786C80.4598 44.1552 80.3661 44.1396 80.2802 44.124C80.1632 44.1005 80.0383 44.0771 79.9212 44.0615C79.7729 44.0302 79.6246 44.0146 79.4686 43.9912C79.3203 43.9756 79.1642 43.96 79.0081 43.9521C78.3525 43.9209 77.8062 44.1474 77.3613 44.6316C77.213 44.8035 77.0725 44.9675 76.9164 45.1393C76.5964 45.5064 76.2686 45.8579 75.9642 46.2171C75.2774 46.9982 75.293 47.8729 75.8003 48.7477C76.534 50.0051 77.7281 50.3019 79.0159 50.4269C79.3047 50.4659 79.5778 50.3566 79.851 50.2394C80.2646 50.0598 80.4363 50.1691 80.4598 50.6065C80.4754 50.8408 80.4754 51.083 80.4832 51.3251C80.5378 52.192 79.2422 56.7142 78.8598 57.4874C78.7817 57.7061 78.6413 57.9717 78.4852 58.1981C78.4383 58.2684 78.3837 58.3309 78.3369 58.3856C78.1574 58.0419 77.8998 57.7217 77.5876 57.4327C77.3145 57.175 76.9945 56.9407 76.6355 56.7454C75.6286 56.1597 74.3331 55.816 72.9048 55.816C71.0239 55.816 69.3459 56.4252 68.2922 57.3781H68.2766C64.507 54.6054 59.3871 54.5898 54.993 58.5652C54.8994 58.6511 54.8057 58.7371 54.7121 58.8386H54.556C55.1882 55.8863 56.5774 53.5744 58.7159 51.8952C60.8544 50.216 63.5704 49.3803 66.8718 49.3803C70.1732 49.3803 72.7097 50.1848 74.6765 51.8093C75.7613 52.6997 76.6042 53.8088 77.2052 55.1443C77.4237 54.3945 77.6891 53.4417 77.8842 52.6372C76.534 52.4029 74.8638 51.7781 73.7867 49.9348C72.7331 48.1541 72.8892 46.1859 74.1926 44.6863C74.4111 44.4208 74.6609 44.1552 74.9028 43.8818L75.613 43.0852C75.7223 42.9602 75.8394 42.8431 75.9486 42.7415C76.0579 42.6478 76.1438 42.5775 76.2218 42.515C76.2686 42.476 76.3701 42.3979 76.4794 42.3276L76.612 42.2417C73.8492 41.0311 70.7429 40.4375 67.301 40.4375C60.0193 40.4375 54.3374 42.64 50.2634 47.0372C46.1737 51.4344 44.1367 57.0735 44.1367 63.9622C44.1367 70.8509 46.3533 76.7633 50.7707 81.0121C55.196 85.2687 61.0495 87.3931 68.3391 87.3931C75.6286 87.3931 82.0675 84.3315 86.6411 78.1925L80.569 72.202C77.6188 76.2009 73.5994 78.1925 68.5108 78.1925C64.6396 78.1925 61.4241 77.2709 58.8798 75.4199C56.3354 73.5688 54.8682 70.9055 54.4623 67.4299H81.4588C81.5992 67.4065 81.7397 67.4143 81.8802 67.4299C81.927 67.4299 81.9661 67.4299 82.0129 67.4299H85.3377C86.485 67.4299 87.5542 66.7739 88.0069 65.7195C88.0069 65.7195 88.0069 65.7039 88.0147 65.7039C88.3815 64.8291 88.6391 63.9465 88.7717 63.1108C88.7717 63.0484 88.7795 62.9937 88.7874 62.9312L88.803 62.814C88.842 62.4938 88.8732 62.2048 88.8888 61.9393C88.8966 61.7909 88.9044 61.6503 88.9044 61.5097C88.9122 61.3691 88.9122 61.2285 88.9122 61.088C88.9044 59.2604 88.444 57.2765 87.9132 55.8316ZM74.6453 56.558C74.614 56.6986 74.8716 56.6595 74.6453 56.558V56.558Z" fill="white"/>
<path d="M123.393 36.9962V38.5791H116.763V28.3365H123.393V29.9193H118.595V32.6379H123.131V34.1286H118.595V36.9962H123.393ZM125.017 38.5791V30.8137H126.713V32.0559H126.834C127.203 31.1899 127.984 30.6576 129.141 30.6576C130.873 30.6576 131.817 31.701 131.817 33.5536V38.5791H130.056V33.9724C130.056 32.787 129.56 32.1908 128.488 32.1908C127.437 32.1908 126.777 32.9148 126.777 34.0576V38.5791H125.017ZM134.008 38.5791V32.2688H132.738V30.8634H134.008V30.0471C134.008 28.5068 134.796 27.7331 136.521 27.7331C136.897 27.7331 137.217 27.7615 137.501 27.8112V29.1031C137.359 29.0818 137.146 29.0676 136.897 29.0676C136.067 29.0676 135.74 29.4296 135.74 30.1607V30.8634H137.43V32.2688H135.762V38.5791H134.008ZM138.691 38.5791V30.8137H140.444V38.5791H138.691ZM139.564 29.5502C138.925 29.5502 138.478 29.1385 138.478 28.5778C138.478 28.017 138.925 27.6053 139.564 27.6053C140.21 27.6053 140.65 28.017 140.65 28.5778C140.65 29.1385 140.21 29.5502 139.564 29.5502ZM142.728 28.9114H144.481V30.8634H146.142V32.2688H144.481V36.0805C144.481 36.8471 144.808 37.1879 145.546 37.1879C145.795 37.1879 145.929 37.1737 146.142 37.1524V38.5294C145.887 38.5791 145.56 38.6146 145.22 38.6146C143.438 38.6146 142.728 38.0112 142.728 36.5064V32.2688H141.5V30.8634H142.728V28.9114Z" fill="black"/>
<path opacity="0.5" d="M120.717 53.4386V54.2227H116.39V47.239H120.717V48.0231H117.262V50.2638H120.538V51.0382H117.262V53.4386H120.717ZM121.791 54.2227V49.0055H122.585V49.8282H122.663C122.924 49.2523 123.432 48.9136 124.231 48.9136C125.402 48.9136 126.055 49.6056 126.055 50.8446V54.2227H125.223V51.0478C125.223 50.1089 124.826 49.6637 123.993 49.6637C123.161 49.6637 122.624 50.2203 122.624 51.135V54.2227H121.791ZM127.531 54.2227V49.7024H126.665V49.0055H127.531V48.4247C127.531 47.3842 128.054 46.8857 129.046 46.8857C129.249 46.8857 129.433 46.9003 129.607 46.9341V47.6117C129.506 47.5923 129.365 47.5875 129.215 47.5875C128.615 47.5875 128.363 47.8779 128.363 48.4489V49.0055H129.559V49.7024H128.363V54.2227H127.531ZM130.396 54.2227V49.0055H131.228V54.2227H130.396ZM130.812 47.9456C130.493 47.9456 130.231 47.6843 130.231 47.3649C130.231 47.0454 130.493 46.7841 130.812 46.7841C131.132 46.7841 131.393 47.0454 131.393 47.3649C131.393 47.6843 131.132 47.9456 130.812 47.9456ZM132.767 47.6552H133.6V49.0055H134.761V49.7024H133.6V52.6546C133.6 53.2692 133.832 53.5306 134.374 53.5306C134.524 53.5306 134.606 53.5257 134.761 53.5112V54.213C134.597 54.242 134.437 54.2614 134.272 54.2614C133.198 54.2614 132.767 53.8645 132.767 52.8676V49.7024H131.925V49.0055H132.767V47.6552ZM136.31 54.2711C135.966 54.2711 135.68 53.9855 135.68 53.6419C135.68 53.2934 135.966 53.0127 136.31 53.0127C136.658 53.0127 136.939 53.2934 136.939 53.6419C136.939 53.9855 136.658 54.2711 136.31 54.2711ZM138.187 54.2227V49.0055H139.02V54.2227H138.187ZM138.603 47.9456C138.284 47.9456 138.023 47.6843 138.023 47.3649C138.023 47.0454 138.284 46.7841 138.603 46.7841C138.923 46.7841 139.184 47.0454 139.184 47.3649C139.184 47.6843 138.923 47.9456 138.603 47.9456ZM140.21 54.2227V49.0055H141.004V49.8282H141.081C141.342 49.2523 141.851 48.9136 142.649 48.9136C143.82 48.9136 144.474 49.6056 144.474 50.8446V54.2227H143.641V51.0478C143.641 50.1089 143.244 49.6637 142.412 49.6637C141.58 49.6637 141.042 50.2203 141.042 51.135V54.2227H140.21ZM149.918 50.6026H149.076C148.941 50.0848 148.481 49.6637 147.731 49.6637C146.792 49.6637 146.201 50.4138 146.201 51.5947C146.201 52.7998 146.801 53.5645 147.731 53.5645C148.432 53.5645 148.921 53.2402 149.076 52.6498H149.918C149.768 53.608 148.989 54.3146 147.735 54.3146C146.274 54.3146 145.34 53.2547 145.34 51.5947C145.34 49.9686 146.269 48.9136 147.731 48.9136C148.999 48.9136 149.773 49.6734 149.918 50.6026Z" fill="black"/>
<rect x="115.5" y="66.7949" width="45.5934" height="17.6077" rx="8.80387" fill="#007AFF"/>
<path d="M128.915 72.418C130.808 72.418 131.991 73.7324 131.991 75.8373C131.991 77.9378 130.817 79.2612 128.915 79.2612C127 79.2612 125.825 77.9423 125.825 75.8373C125.825 73.7324 127.022 72.418 128.915 72.418ZM128.915 73.4524C127.754 73.4524 127.018 74.3784 127.018 75.8373C127.018 77.2918 127.736 78.2268 128.915 78.2268C130.076 78.2268 130.799 77.2918 130.799 75.8373C130.799 74.3784 130.071 73.4524 128.915 73.4524ZM133.13 72.5806H135.759C137.06 72.5806 137.95 73.4704 137.95 74.7849C137.95 76.0768 137.028 76.9621 135.709 76.9621H134.295V79.0986H133.13V72.5806ZM134.295 73.5563V75.9954H135.447C136.278 75.9954 136.766 75.5618 136.766 74.7849C136.766 73.9854 136.292 73.5563 135.452 73.5563H134.295ZM143.258 78.0913V79.0986H139.039V72.5806H143.258V73.5879H140.204V75.3179H143.09V76.2665H140.204V78.0913H143.258ZM145.629 79.0986H144.505V72.5806H145.517L148.715 77.0118H148.791V72.5806H149.912V79.0986H148.904L145.706 74.6629H145.629V79.0986Z" fill="white"/>
<rect opacity="0.5" x="26.957" y="115.105" width="229.289" height="0.660774" fill="#C6C6C8"/>
<g clip-path="url(#clip3_22477_105804)">
<path d="M27.7239 130.262C27.7239 129.216 28.5254 128.489 29.6714 128.489C30.7748 128.489 31.5724 129.162 31.5724 130.095C31.5724 130.695 31.2665 131.191 30.318 132.128L29.1487 133.301V133.367H31.6576V134.215H27.7781V133.522L29.6404 131.617C30.4031 130.843 30.5929 130.552 30.5929 130.157C30.5929 129.666 30.1902 129.309 29.6404 129.309C29.0558 129.309 28.6609 129.693 28.6609 130.262V130.277H27.7239V130.262ZM34.6264 134.354C33.2868 134.354 32.4931 133.27 32.4931 131.416C32.4931 129.569 33.2984 128.489 34.6264 128.489C35.9505 128.489 36.7559 129.569 36.7559 131.423C36.7559 133.27 35.9622 134.354 34.6264 134.354ZM34.6264 133.526C35.3349 133.526 35.7453 132.79 35.7453 131.416C35.7453 130.049 35.3272 129.321 34.6264 129.321C33.9256 129.321 33.5036 130.053 33.5036 131.416C33.5036 132.79 33.9179 133.526 34.6264 133.526ZM38.9968 134.215V129.635H38.931L37.5411 130.61V129.65L39.0007 128.628H39.9957V134.215H38.9968ZM44.4041 129.456V131.327H45.5578C46.1928 131.327 46.5567 130.986 46.5567 130.393C46.5567 129.813 46.1696 129.456 45.5346 129.456H44.4041ZM44.4041 132.12V134.215H43.4052V128.628H45.674C46.8471 128.628 47.5828 129.302 47.5828 130.374C47.5828 131.11 47.1956 131.725 46.5296 131.965L47.7492 134.215H46.6071L45.5114 132.12H44.4041ZM52.201 134.215L51.7286 132.786H49.6727L49.1926 134.215H48.1821L50.1644 128.628H51.2872L53.2734 134.215H52.201ZM50.6716 129.693L49.905 131.996H51.4963L50.7374 129.693H50.6716ZM55.8048 134.215H54.8058V129.491H53.0868V128.628H57.5277V129.491H55.8048V134.215ZM59.3737 134.215H58.3748V128.628H59.3737V134.215ZM61.5179 134.215H60.5538V128.628H61.4211L64.1623 132.426H64.2281V128.628H65.1883V134.215H64.3249L61.5837 130.413H61.5179V134.215ZM71.2042 131.977C71.2042 133.429 70.2517 134.354 68.7611 134.354C67.1427 134.354 66.1361 133.231 66.1361 131.419C66.1361 129.631 67.1543 128.489 68.7456 128.489C70.0349 128.489 70.9796 129.224 71.1577 130.366H70.1627C69.9613 129.731 69.4619 129.379 68.7456 129.379C67.7699 129.379 67.1582 130.157 67.1582 131.412C67.1582 132.682 67.7815 133.464 68.7766 133.464C69.6284 133.464 70.2091 132.945 70.2246 132.174L70.2285 132.058H68.885V131.276H71.2042V131.977ZM71.9119 132.697H72.8876C72.9495 133.197 73.4451 133.518 74.1536 133.518C74.8118 133.518 75.288 133.181 75.288 132.713C75.288 132.31 74.9822 132.074 74.2659 131.907L73.5419 131.741C72.5275 131.512 72.0513 131.009 72.0513 130.177C72.0513 129.162 72.8798 128.489 74.1304 128.489C75.3035 128.489 76.1514 129.162 76.1979 130.122H75.2416C75.1719 129.631 74.7383 129.321 74.1265 129.321C73.4838 129.321 73.0579 129.631 73.0579 130.107C73.0579 130.483 73.3406 130.703 74.0336 130.862L74.6763 131.009C75.8107 131.265 76.287 131.737 76.287 132.589C76.287 133.677 75.4468 134.354 74.0917 134.354C72.8101 134.354 71.9622 133.712 71.9119 132.697Z" fill="black" fill-opacity="0.3"/>
<path d="M46.4787 154.84V152.93H41.4745V151.298C42.3972 149.601 43.8382 147.323 45.6482 144.597H48.2319V151.383H49.6161V152.93H48.2319V154.84H46.4787ZM43.1709 151.319V151.426H46.5071V146.088H46.4077C45.4281 147.536 44.3634 149.218 43.1709 151.319ZM51.9499 157.551H50.7361L51.3963 153.264H53.1779L51.9499 157.551ZM58.2091 155.088C56.3352 155.088 54.9084 153.981 54.6032 152.299H56.4275C56.6617 153.072 57.3431 153.555 58.2233 153.555C59.721 153.555 60.6083 152.157 60.6083 149.814C60.6083 149.814 60.5586 149.814 60.5444 149.814C60.5373 149.814 60.5089 149.814 60.5089 149.814H60.4876C60.0049 150.787 59.0325 151.348 57.8329 151.348C55.8809 151.348 54.4613 149.914 54.4613 147.94C54.4613 145.839 56.0371 144.342 58.2659 144.342C59.7636 144.342 60.949 145.051 61.6375 146.365C62.1131 147.209 62.3615 148.302 62.3615 149.601C62.3615 153.051 60.8141 155.088 58.2091 155.088ZM58.273 149.892C59.4442 149.892 60.3031 149.055 60.3031 147.912C60.3031 146.755 59.4229 145.868 58.2801 145.868C57.1373 145.868 56.2571 146.741 56.2571 147.884C56.2571 149.055 57.0947 149.892 58.273 149.892Z" fill="#9F9F9F"/>
<path d="M71.3125 168.638L71.1215 168.503L70.9305 168.638L69.0088 169.999L69.7096 167.751L69.7792 167.527L69.5915 167.388L67.7031 165.981L70.0579 165.952L70.2919 165.949L70.3669 165.728L71.1215 163.497L71.8761 165.728L71.9511 165.949L72.1851 165.952L74.5399 165.981L72.6515 167.388L72.4638 167.527L72.5335 167.751L73.2342 169.999L71.3125 168.638ZM67.5464 165.864C67.5465 165.864 67.5465 165.864 67.5465 165.864L67.5464 165.864Z" stroke="#8E8E92" stroke-width="0.660774"/>
<path fill-rule="evenodd" clip-rule="evenodd" d="M71.1238 163.108C71.0194 163.108 70.9147 163.167 70.873 163.285L70.0312 165.675L67.4336 165.705C67.1782 165.708 67.0751 166.036 67.2828 166.185L69.3568 167.669L68.5819 170.057C68.5042 170.296 68.7738 170.499 68.982 170.357L71.1223 168.901L71.1238 168.902V163.108Z" fill="#8E8E92"/>
<path fill-rule="evenodd" clip-rule="evenodd" d="M61.2114 168.908L59.1302 170.382C58.9239 170.528 58.6499 170.329 58.7251 170.087L59.484 167.652L57.4389 166.129C57.2362 165.978 57.3408 165.656 57.5936 165.653L60.1438 165.622L60.961 163.206C61.042 162.966 61.3807 162.966 61.4617 163.206L62.2789 165.622L64.8291 165.653C65.0819 165.656 65.1866 165.978 64.9838 166.129L62.9387 167.652L63.6976 170.087C63.7728 170.329 63.4988 170.528 63.2925 170.382L61.2114 168.908Z" fill="#9F9F9F"/>
<path fill-rule="evenodd" clip-rule="evenodd" d="M51.9614 168.908L49.8802 170.382C49.6739 170.528 49.3999 170.329 49.4751 170.087L50.234 167.652L48.1889 166.129C47.9862 165.978 48.0908 165.656 48.3436 165.653L50.8938 165.622L51.711 163.206C51.792 162.966 52.1307 162.966 52.2117 163.206L53.0289 165.622L55.5791 165.653C55.8319 165.656 55.9366 165.978 55.7338 166.129L53.6887 167.652L54.4476 170.087C54.5228 170.329 54.2488 170.528 54.0425 170.382L51.9614 168.908Z" fill="#9F9F9F"/>
<path fill-rule="evenodd" clip-rule="evenodd" d="M42.0473 168.908L39.9662 170.382C39.7598 170.528 39.4858 170.329 39.561 170.087L40.3199 167.652L38.2748 166.129C38.0721 165.978 38.1768 165.656 38.4296 165.653L40.9797 165.622L41.7969 163.206C41.8779 162.966 42.2167 162.966 42.2977 163.206L43.1149 165.622L45.665 165.653C45.9178 165.656 46.0225 165.978 45.8198 166.129L43.7747 167.652L44.5335 170.087C44.6088 170.329 44.3347 170.528 44.1284 170.382L42.0473 168.908Z" fill="#9F9F9F"/>
<path fill-rule="evenodd" clip-rule="evenodd" d="M32.7973 168.908L30.7162 170.382C30.5098 170.528 30.2358 170.329 30.311 170.087L31.0699 167.652L29.0248 166.129C28.8221 165.978 28.9268 165.656 29.1796 165.653L31.7297 165.622L32.5469 163.206C32.6279 162.966 32.9667 162.966 33.0477 163.206L33.8649 165.622L36.415 165.653C36.6678 165.656 36.7725 165.978 36.5698 166.129L34.5247 167.652L35.2835 170.087C35.3588 170.329 35.0847 170.528 34.8784 170.382L32.7973 168.908Z" fill="#9F9F9F"/>
</g>
<rect opacity="0.5" x="88.8516" y="135.92" width="27.0918" height="0.660774" transform="rotate(90 88.8516 135.92)" fill="#C6C6C8"/>
<path d="M121.576 134.34L121.104 132.911H119.048L118.568 134.34H117.557L119.54 128.753H120.662L122.649 134.34H121.576ZM120.047 129.818L119.28 132.121H120.871L120.113 129.818H120.047ZM127.979 132.102C127.979 133.554 127.027 134.479 125.536 134.479C123.918 134.479 122.911 133.356 122.911 131.544C122.911 129.756 123.929 128.614 125.521 128.614C126.81 128.614 127.755 129.349 127.933 130.491H126.938C126.736 129.856 126.237 129.504 125.521 129.504C124.545 129.504 123.933 130.282 123.933 131.537C123.933 132.807 124.557 133.589 125.552 133.589C126.403 133.589 126.984 133.07 127 132.299L127.003 132.183H125.66V131.401H127.979V132.102ZM132.559 133.476V134.34H128.942V128.753H132.559V129.616H129.941V131.099H132.415V131.912H129.941V133.476H132.559Z" fill="black" fill-opacity="0.3"/>
<path d="M116.274 154.965V146.568H116.154L113.605 148.356V146.596L116.281 144.722H118.106V154.965H116.274ZM121.1 154.965L125.55 146.376V146.262H120.269V144.722H127.396V146.284L123.016 154.965H121.1ZM133.513 151.6V154.574H131.98V151.6H128.991V150.053H131.98V147.086H133.513V150.053H136.494V151.6H133.513Z" fill="#9F9F9F"/>
<path d="M111.055 169.591H110.358V167.186L108.376 164.004H109.17L110.676 166.486H110.738L112.244 164.004H113.037L111.055 167.186V169.591ZM114.744 165.932C114.078 165.932 113.613 166.42 113.563 167.159H115.863C115.847 166.42 115.406 165.932 114.744 165.932ZM115.844 168.511H116.51C116.308 169.227 115.666 169.664 114.752 169.664C113.594 169.664 112.87 168.828 112.87 167.508C112.87 166.195 113.606 165.344 114.752 165.344C115.878 165.344 116.564 166.145 116.564 167.442V167.698H113.563V167.729C113.598 168.553 114.059 169.076 114.767 169.076C115.305 169.076 115.669 168.878 115.844 168.511ZM118.696 169.08C119.382 169.08 119.889 168.631 119.889 168.034V167.651L118.766 167.725C118.131 167.767 117.852 167.988 117.852 168.406C117.852 168.832 118.212 169.08 118.696 169.08ZM118.572 169.664C117.763 169.664 117.163 169.184 117.163 168.422C117.163 167.674 117.713 167.245 118.685 167.186L119.889 167.113V166.733C119.889 166.219 119.567 165.936 118.944 165.936C118.445 165.936 118.096 166.126 118.003 166.455H117.33C117.419 165.785 118.077 165.344 118.967 165.344C119.986 165.344 120.555 165.866 120.555 166.733V169.591H119.92V168.975H119.858C119.587 169.42 119.13 169.664 118.572 169.664ZM121.588 169.591V165.417H122.223V166.037H122.285C122.408 165.63 122.889 165.344 123.442 165.344C123.551 165.344 123.69 165.351 123.775 165.363V166.029C123.721 166.013 123.481 165.99 123.349 165.99C122.714 165.99 122.254 166.416 122.254 167.005V169.591H121.588ZM124.235 166.559C124.235 165.866 124.905 165.344 125.792 165.344C126.667 165.344 127.274 165.777 127.364 166.462H126.705C126.616 166.129 126.291 165.909 125.788 165.909C125.292 165.909 124.905 166.16 124.905 166.532C124.905 166.819 125.137 166.997 125.629 167.117L126.272 167.272C127.058 167.461 127.437 167.802 127.437 168.402C127.437 169.149 126.713 169.664 125.765 169.664C124.835 169.664 124.196 169.219 124.123 168.526H124.808C124.92 168.878 125.253 169.103 125.788 169.103C126.349 169.103 126.752 168.836 126.752 168.453C126.752 168.166 126.535 167.972 126.09 167.864L125.373 167.69C124.591 167.5 124.235 167.163 124.235 166.559ZM132.759 163.872C134.347 163.872 135.315 165.003 135.315 166.795C135.315 168.58 134.354 169.722 132.759 169.722C131.156 169.722 130.192 168.584 130.192 166.795C130.192 164.999 131.18 163.872 132.759 163.872ZM132.759 164.515C131.621 164.515 130.908 165.398 130.908 166.795C130.908 168.182 131.598 169.08 132.759 169.08C133.905 169.08 134.598 168.182 134.598 166.795C134.598 165.398 133.901 164.515 132.759 164.515ZM136.282 169.591V163.76H136.948V169.591H136.282ZM139.587 169.664C138.519 169.664 137.833 168.816 137.833 167.504C137.833 166.195 138.526 165.344 139.587 165.344C140.168 165.344 140.66 165.618 140.896 166.075H140.954V163.76H141.62V169.591H140.985V168.925H140.923C140.66 169.389 140.164 169.664 139.587 169.664ZM139.742 165.944C138.983 165.944 138.523 166.532 138.523 167.504C138.523 168.48 138.979 169.064 139.742 169.064C140.501 169.064 140.97 168.468 140.97 167.504C140.97 166.548 140.497 165.944 139.742 165.944Z" fill="#9F9F9F"/>
<rect opacity="0.5" x="162.195" y="135.92" width="27.0918" height="0.660774" transform="rotate(90 162.195 135.92)" fill="#C6C6C8"/>
<path d="M190.372 129.581V131.452H191.526C192.161 131.452 192.525 131.111 192.525 130.518C192.525 129.938 192.137 129.581 191.503 129.581H190.372ZM190.372 132.245V134.34H189.373V128.753H191.642C192.815 128.753 193.551 129.427 193.551 130.499C193.551 131.235 193.163 131.85 192.498 132.09L193.717 134.34H192.575L191.479 132.245H190.372ZM198.169 134.34L197.697 132.911H195.641L195.161 134.34H194.15L196.132 128.753H197.255L199.241 134.34H198.169ZM196.64 129.818L195.873 132.121H197.464L196.705 129.818H196.64ZM201.773 134.34H200.774V129.616H199.055V128.753H203.496V129.616H201.773V134.34ZM205.342 134.34H204.343V128.753H205.342V134.34ZM207.486 134.34H206.522V128.753H207.389L210.13 132.551H210.196V128.753H211.156V134.34H210.293L207.552 130.538H207.486V134.34ZM217.172 132.102C217.172 133.554 216.22 134.479 214.729 134.479C213.111 134.479 212.104 133.356 212.104 131.544C212.104 129.756 213.122 128.614 214.714 128.614C216.003 128.614 216.947 129.349 217.126 130.491H216.131C215.929 129.856 215.43 129.504 214.714 129.504C213.738 129.504 213.126 130.282 213.126 131.537C213.126 132.807 213.749 133.589 214.744 133.589C215.596 133.589 216.177 133.07 216.193 132.299L216.196 132.183H214.853V131.401H217.172V132.102Z" fill="black" fill-opacity="0.3"/>
<path d="M185.945 153.465H184.74V146.481H185.824L189.251 151.229H189.333V146.481H190.533V153.465H189.454L186.028 148.712H185.945V153.465ZM194.172 153.571C192.584 153.571 191.626 152.536 191.626 150.818C191.626 149.109 192.599 148.064 194.172 148.064C195.75 148.064 196.718 149.104 196.718 150.818C196.718 152.536 195.754 153.571 194.172 153.571ZM194.172 152.565C195.009 152.565 195.483 151.926 195.483 150.818C195.483 149.714 195.004 149.07 194.172 149.07C193.335 149.07 192.856 149.714 192.856 150.818C192.856 151.926 193.335 152.565 194.172 152.565ZM198.449 153.566C197.994 153.566 197.675 153.237 197.675 152.802C197.675 152.361 197.994 152.037 198.449 152.037C198.909 152.037 199.224 152.361 199.224 152.802C199.224 153.237 198.909 153.566 198.449 153.566Z" fill="#8E8E92"/>
<path d="M205.616 154.965V146.568H205.496L202.947 148.356V146.596L205.623 144.722H207.448V154.965H205.616ZM210.442 154.965L214.892 146.376V146.262H209.611V144.722H216.738V146.284L212.358 154.965H210.442Z" fill="#9F9F9F"/>
<path d="M177.169 169.591H176.473V164.004H179.864V164.631H177.169V166.552H179.643V167.171H177.169V169.591ZM180.742 169.591V165.417H181.408V169.591H180.742ZM181.075 164.569C180.82 164.569 180.611 164.36 180.611 164.105C180.611 163.849 180.82 163.64 181.075 163.64C181.331 163.64 181.54 163.849 181.54 164.105C181.54 164.36 181.331 164.569 181.075 164.569ZM182.759 164.337H183.425V165.417H184.354V165.975H183.425V168.336C183.425 168.828 183.61 169.037 184.044 169.037C184.164 169.037 184.23 169.033 184.354 169.022V169.583C184.222 169.606 184.094 169.622 183.963 169.622C183.103 169.622 182.759 169.304 182.759 168.507V165.975H182.085V165.417H182.759V164.337ZM185.162 169.591V165.417H185.797V166.075H185.859C186.068 165.615 186.475 165.344 187.114 165.344C188.051 165.344 188.573 165.897 188.573 166.888V169.591H187.907V167.051C187.907 166.3 187.59 165.944 186.924 165.944C186.258 165.944 185.828 166.389 185.828 167.121V169.591H185.162ZM191.259 165.932C190.593 165.932 190.129 166.42 190.079 167.159H192.378C192.363 166.42 191.921 165.932 191.259 165.932ZM192.359 168.511H193.025C192.824 169.227 192.181 169.664 191.267 169.664C190.11 169.664 189.386 168.828 189.386 167.508C189.386 166.195 190.121 165.344 191.267 165.344C192.394 165.344 193.079 166.145 193.079 167.442V167.698H190.079V167.729C190.113 168.553 190.574 169.076 191.283 169.076C191.821 169.076 192.185 168.878 192.359 168.511ZM193.829 166.559C193.829 165.866 194.499 165.344 195.386 165.344C196.261 165.344 196.869 165.777 196.958 166.462H196.3C196.211 166.129 195.885 165.909 195.382 165.909C194.886 165.909 194.499 166.16 194.499 166.532C194.499 166.819 194.732 166.997 195.223 167.117L195.866 167.272C196.652 167.461 197.031 167.802 197.031 168.402C197.031 169.149 196.307 169.664 195.359 169.664C194.43 169.664 193.791 169.219 193.717 168.526H194.403C194.515 168.878 194.848 169.103 195.382 169.103C195.943 169.103 196.346 168.836 196.346 168.453C196.346 168.166 196.129 167.972 195.684 167.864L194.968 167.69C194.186 167.5 193.829 167.163 193.829 166.559ZM197.704 166.559C197.704 165.866 198.374 165.344 199.261 165.344C200.136 165.344 200.744 165.777 200.833 166.462H200.174C200.085 166.129 199.76 165.909 199.257 165.909C198.761 165.909 198.374 166.16 198.374 166.532C198.374 166.819 198.606 166.997 199.098 167.117L199.741 167.272C200.527 167.461 200.906 167.802 200.906 168.402C200.906 169.149 200.182 169.664 199.234 169.664C198.304 169.664 197.666 169.219 197.592 168.526H198.277C198.39 168.878 198.723 169.103 199.257 169.103C199.818 169.103 200.221 168.836 200.221 168.453C200.221 168.166 200.004 167.972 199.559 167.864L198.843 167.69C198.061 167.5 197.704 167.163 197.704 166.559ZM207.823 169.591L207.309 169.033C206.832 169.451 206.178 169.695 205.5 169.695C204.389 169.695 203.611 169.037 203.611 168.1C203.611 167.438 203.971 166.935 204.718 166.54C204.769 166.517 204.873 166.462 204.935 166.431C204.42 165.889 204.234 165.529 204.234 165.123C204.234 164.407 204.842 163.872 205.659 163.872C206.484 163.872 207.084 164.399 207.084 165.131C207.084 165.704 206.739 166.122 205.876 166.575L207.274 168.077C207.448 167.729 207.537 167.272 207.537 166.575V166.478H208.187V166.579C208.187 167.446 208.033 168.077 207.727 168.549L208.698 169.591H207.823ZM205.121 166.95C204.583 167.229 204.308 167.616 204.308 168.054C204.308 168.681 204.815 169.107 205.562 169.107C206.07 169.107 206.592 168.906 206.898 168.584L205.318 166.857C205.276 166.873 205.175 166.923 205.121 166.95ZM205.5 166.18C206.182 165.831 206.43 165.553 206.43 165.154C206.43 164.72 206.116 164.426 205.663 164.426C205.218 164.426 204.9 164.728 204.9 165.162C204.9 165.471 205.059 165.742 205.5 166.18ZM211.097 168.131H211.802C211.887 168.716 212.445 169.087 213.238 169.087C213.99 169.087 214.543 168.681 214.543 168.127C214.543 167.651 214.195 167.349 213.424 167.156L212.708 166.97C211.697 166.714 211.26 166.257 211.26 165.464C211.26 164.515 212.054 163.872 213.235 163.872C214.315 163.872 215.12 164.515 215.178 165.417H214.477C214.381 164.844 213.908 164.503 213.211 164.503C212.468 164.503 211.976 164.875 211.976 165.44C211.976 165.878 212.282 166.129 213.053 166.327L213.637 166.482C214.795 166.772 215.259 167.221 215.259 168.042C215.259 169.068 214.45 169.722 213.173 169.722C211.988 169.722 211.171 169.095 211.097 168.131ZM218.17 165.344C219.235 165.344 219.924 166.191 219.924 167.504C219.924 168.809 219.231 169.664 218.17 169.664C217.574 169.664 217.094 169.405 216.865 168.964H216.804V170.985H216.138V165.417H216.773V166.114H216.835C217.102 165.634 217.601 165.344 218.17 165.344ZM218.012 169.064C218.778 169.064 219.235 168.48 219.235 167.504C219.235 166.528 218.778 165.944 218.015 165.944C217.26 165.944 216.784 166.544 216.784 167.504C216.784 168.46 217.26 169.064 218.012 169.064ZM222.486 169.664C221.298 169.664 220.562 168.844 220.562 167.504C220.562 166.16 221.298 165.344 222.486 165.344C223.675 165.344 224.411 166.16 224.411 167.504C224.411 168.844 223.675 169.664 222.486 169.664ZM222.486 169.064C223.276 169.064 223.722 168.491 223.722 167.504C223.722 166.513 223.276 165.944 222.486 165.944C221.697 165.944 221.251 166.513 221.251 167.504C221.251 168.491 221.697 169.064 222.486 169.064ZM225.258 169.591V165.417H225.893V166.037H225.955C226.079 165.63 226.559 165.344 227.112 165.344C227.221 165.344 227.36 165.351 227.445 165.363V166.029C227.391 166.013 227.151 165.99 227.019 165.99C226.384 165.99 225.924 166.416 225.924 167.005V169.591H225.258ZM228.591 164.337H229.257V165.417H230.186V165.975H229.257V168.336C229.257 168.828 229.442 169.037 229.876 169.037C229.996 169.037 230.062 169.033 230.186 169.022V169.583C230.054 169.606 229.926 169.622 229.795 169.622C228.935 169.622 228.591 169.304 228.591 168.507V165.975H227.917V165.417H228.591V164.337Z" fill="#9F9F9F"/>
</g>
<rect x="26.957" y="184.053" width="115.909" height="116.667" rx="3.0303" fill="#F8F8F8"/>
<rect x="149.684" y="184.053" width="115.909" height="116.667" rx="3.0303" fill="#F8F8F8"/>
</g>
</g>
<defs>
<clipPath id="clip0_22477_105804">
<rect x="0.863281" width="263.636" height="263.636" rx="8" fill="white"/>
</clipPath>
<clipPath id="clip1_22477_105804">
<rect x="13.7422" y="11.3633" width="238.552" height="302.572" rx="15.8586" fill="white"/>
</clipPath>
<clipPath id="clip2_22477_105804">
<rect width="211.448" height="147.353" fill="white" transform="translate(26.957 24.5791)"/>
</clipPath>
<clipPath id="clip3_22477_105804">
<rect width="50" height="44.5017" fill="white" transform="translate(26.957 127.215)"/>
</clipPath>
</defs>
</svg>
