<svg width="10" height="8" viewBox="0 0 10 8" fill="none" xmlns="http://www.w3.org/2000/svg">
<path d="M3.79392 1.48256C4.21993 1.48256 4.62851 1.6518 4.92975 1.95304C5.23099 2.25428 5.40022 2.66285 5.40022 3.08887C5.40022 3.51489 5.23099 3.92346 4.92975 4.2247C4.62851 4.52594 4.21993 4.69518 3.79392 4.69518C3.3679 4.69518 2.95933 4.52594 2.65808 4.2247C2.35684 3.92346 2.18761 3.51489 2.18761 3.08887C2.18761 2.66285 2.35684 2.25428 2.65808 1.95304C2.95933 1.6518 3.3679 1.48256 3.79392 1.48256ZM3.79392 5.49833C4.86613 5.49833 7.00653 6.03645 7.00653 7.10464V7.9078H0.581299V7.10464C0.581299 6.03645 2.7217 5.49833 3.79392 5.49833ZM6.91015 1.62713C7.72134 2.5106 7.72134 3.73541 6.91015 4.5466L6.2355 3.86793C6.57283 3.39407 6.57283 2.77966 6.2355 2.3058L6.91015 1.62713ZM8.23937 0.277832C9.81757 1.90422 9.80552 4.33778 8.23937 5.89991L7.5848 5.24534C8.69717 3.96833 8.69717 2.14517 7.5848 0.932403L8.23937 0.277832Z" fill="black"/>
</svg>
