<svg width="776" height="168" viewBox="0 0 776 168" fill="none" xmlns="http://www.w3.org/2000/svg">
<g clip-path="url(#clip0_13235_71135)">
<rect width="776" height="167.225" fill="#F8F8F8"/>
<g opacity="0.5">
<path d="M-35.0498 453.415C-1.61325 413.361 99.2691 347.544 235.306 404.707C405.353 476.16 502.172 388.153 602.366 293.555C702.56 198.957 858.861 276.216 928.626 251.018C1019.88 218.059 1047.49 149.956 1070.82 107.884" stroke="#EEEEEE" stroke-width="1.77359"/>
<path d="M-50.9737 431.834C-17.5372 391.781 83.3451 325.964 219.382 383.127C389.429 454.58 486.248 366.573 586.442 271.975C686.636 177.377 842.937 254.636 912.702 229.438C1003.95 196.479 1031.57 128.376 1054.89 86.3039" stroke="#EEEEEE" stroke-width="1.77359"/>
<path d="M-50.0357 403.909C-16.5992 363.855 84.2831 298.038 220.32 355.201C390.367 426.654 487.186 338.647 587.38 244.049C687.574 149.451 843.875 226.71 913.64 201.512C1004.89 168.554 1032.51 100.451 1055.83 58.3782" stroke="#EEEEEE" stroke-width="1.77359"/>
<path d="M-58.8109 379.9C-25.3744 339.846 75.508 274.029 211.545 331.192C381.592 402.646 478.411 314.638 578.605 220.04C678.799 125.442 835.1 202.702 904.865 177.504C996.117 144.545 1023.73 76.4417 1047.06 34.3694" stroke="#EEEEEE" stroke-width="1.77359"/>
<path d="M-60.842 346.849C-27.4055 306.795 73.4768 240.979 209.514 298.141C379.56 369.595 476.379 281.587 576.574 186.989C676.768 92.3915 833.069 169.651 902.834 144.453C994.086 111.494 1021.7 43.391 1045.02 1.31858" stroke="#EEEEEE" stroke-width="1.77359"/>
<path d="M-70.1429 317.264C-36.7064 277.21 64.1759 211.393 200.213 268.556C370.26 340.009 467.079 252.002 567.273 157.404C667.467 62.8061 823.768 140.065 893.533 114.867C984.785 81.9085 1012.4 13.8055 1035.72 -28.2669" stroke="#EEEEEE" stroke-width="1.77359"/>
<path d="M-70.6059 291.444C-37.1694 251.39 63.7129 185.573 199.75 242.736C369.797 314.19 466.616 226.182 566.81 131.584C667.004 36.9863 823.305 114.246 893.07 89.0475C984.322 56.0887 1011.94 -12.0143 1035.26 -54.0867" stroke="#EEEEEE" stroke-width="1.77359"/>
<path d="M-79.1817 261.629C-45.7452 221.575 55.1371 155.758 191.174 212.921C361.221 284.375 458.04 196.367 558.234 101.769C658.428 7.17133 814.729 84.4307 884.494 59.2326C975.746 26.2738 1003.36 -41.8293 1026.68 -83.9016" stroke="#EEEEEE" stroke-width="1.77359"/>
<path d="M-80.9018 233.639C-47.4653 193.585 53.417 127.768 189.454 184.931C359.501 256.384 456.32 168.377 556.514 73.7789C656.708 -20.8189 813.009 56.4404 882.774 31.2424C974.026 -1.71648 1001.64 -69.8195 1024.96 -111.892" stroke="#EEEEEE" stroke-width="1.77359"/>
<path d="M-24.3365 475.565C9.10001 435.512 109.982 369.695 246.02 426.858C416.066 498.311 512.885 410.303 613.079 315.706C713.273 221.108 869.574 298.367 939.339 273.169C1030.59 240.21 1058.21 172.107 1081.53 130.035" stroke="#EEEEEE" stroke-width="1.77359"/>
<path d="M-10.3515 499.006C23.085 458.953 123.967 393.136 260.004 450.299C430.051 521.752 526.87 433.744 627.064 339.147C727.258 244.549 883.559 321.808 953.324 296.61C1044.58 263.651 1072.19 195.548 1095.51 153.476" stroke="#EEEEEE" stroke-width="1.77359"/>
<path d="M-5.21834 528.548C28.2182 488.495 129.1 422.678 265.138 479.841C435.184 551.294 532.003 463.286 632.197 368.689C732.392 274.091 888.692 351.35 958.457 326.152C1049.71 293.193 1077.32 225.09 1100.65 183.018" stroke="#EEEEEE" stroke-width="1.77359"/>
<path d="M11.1115 556.74C44.548 516.686 145.43 450.869 281.468 508.032C451.514 579.485 548.333 491.478 648.527 396.88C748.721 302.282 905.022 379.542 974.787 354.343C1066.04 321.385 1093.65 253.282 1116.98 211.209" stroke="#EEEEEE" stroke-width="1.77359"/>
<path d="M30.0043 583.445C63.4408 543.392 164.323 477.575 300.36 534.738C470.407 606.191 567.226 518.183 667.42 423.586C767.614 328.988 923.915 406.247 993.68 381.049C1084.93 348.09 1112.55 279.987 1135.87 237.915" stroke="#EEEEEE" stroke-width="1.77359"/>
</g>
</g>
<defs>
<clipPath id="clip0_13235_71135">
<rect width="776" height="167.225" fill="white"/>
</clipPath>
</defs>
</svg>
