<svg width="343" height="228" viewBox="0 0 343 228" fill="none" xmlns="http://www.w3.org/2000/svg">
<g clip-path="url(#clip0_15277_34851)">
<rect width="343" height="227.706" fill="#F8F8F8"/>
<g opacity="0.5">
<path d="M-233.05 453.415C-199.613 413.361 -98.7309 347.544 37.3062 404.707C207.353 476.16 304.172 388.153 404.366 293.555C504.56 198.957 660.861 276.216 730.626 251.018C821.878 218.059 849.493 149.956 872.816 107.884" stroke="#EEEEEE" stroke-width="1.77359"/>
<path d="M-248.974 431.834C-215.537 391.781 -114.655 325.964 21.3823 383.127C191.429 454.58 288.248 366.573 388.442 271.975C488.636 177.377 644.937 254.636 714.702 229.438C805.954 196.479 833.569 128.376 856.892 86.3039" stroke="#EEEEEE" stroke-width="1.77359"/>
<path d="M-248.036 403.909C-214.599 363.855 -113.717 298.038 22.3203 355.201C192.367 426.654 289.186 338.647 389.38 244.049C489.574 149.451 645.875 226.71 715.64 201.512C806.892 168.554 834.507 100.451 857.83 58.3782" stroke="#EEEEEE" stroke-width="1.77359"/>
<path d="M-256.811 379.9C-223.374 339.846 -122.492 274.029 13.5451 331.192C183.592 402.646 280.411 314.638 380.605 220.04C480.799 125.442 637.1 202.702 706.865 177.504C798.117 144.545 825.732 76.4417 849.055 34.3694" stroke="#EEEEEE" stroke-width="1.77359"/>
<path d="M-258.842 346.849C-225.405 306.795 -124.523 240.979 11.514 298.141C181.56 369.595 278.379 281.587 378.574 186.989C478.768 92.3915 635.069 169.651 704.834 144.453C796.086 111.494 823.701 43.391 847.024 1.31858" stroke="#EEEEEE" stroke-width="1.77359"/>
<path d="M-268.143 317.264C-234.706 277.21 -133.824 211.393 2.21311 268.556C172.26 340.009 269.079 252.002 369.273 157.404C469.467 62.8061 625.768 140.065 695.533 114.867C786.785 81.9085 814.4 13.8055 837.723 -28.2669" stroke="#EEEEEE" stroke-width="1.77359"/>
<path d="M-268.606 291.444C-235.169 251.39 -134.287 185.573 1.7501 242.736C171.797 314.19 268.616 226.182 368.81 131.584C469.004 36.9863 625.305 114.246 695.07 89.0475C786.322 56.0887 813.937 -12.0143 837.26 -54.0867" stroke="#EEEEEE" stroke-width="1.77359"/>
<path d="M-277.182 261.629C-243.745 221.575 -142.863 155.758 -6.82571 212.921C163.221 284.375 260.04 196.367 360.234 101.769C460.428 7.17133 616.729 84.4307 686.494 59.2326C777.746 26.2738 805.361 -41.8293 828.684 -83.9016" stroke="#EEEEEE" stroke-width="1.77359"/>
<path d="M-278.902 233.639C-245.465 193.585 -144.583 127.768 -8.5458 184.931C161.501 256.384 258.32 168.377 358.514 73.7789C458.708 -20.8189 615.009 56.4404 684.774 31.2424C776.026 -1.71648 803.641 -69.8195 826.964 -111.892" stroke="#EEEEEE" stroke-width="1.77359"/>
<path d="M-222.337 475.565C-188.9 435.512 -88.0177 369.695 48.0195 426.858C218.066 498.311 314.885 410.303 415.079 315.706C515.273 221.108 671.574 298.367 741.339 273.169C832.591 240.21 860.206 172.107 883.529 130.035" stroke="#EEEEEE" stroke-width="1.77359"/>
<path d="M-208.352 499.006C-174.915 458.953 -74.0327 393.136 62.0045 450.299C232.051 521.752 328.87 433.744 429.064 339.147C529.258 244.549 685.559 321.808 755.324 296.61C846.576 263.651 874.191 195.548 897.514 153.476" stroke="#EEEEEE" stroke-width="1.77359"/>
<path d="M-203.218 528.548C-169.782 488.495 -68.8995 422.678 67.1377 479.841C237.184 551.294 334.003 463.286 434.197 368.689C534.392 274.091 690.692 351.35 760.457 326.152C851.709 293.193 879.325 225.09 902.648 183.018" stroke="#EEEEEE" stroke-width="1.77359"/>
<path d="M-186.889 556.74C-153.452 516.686 -52.5697 450.869 83.4675 508.032C253.514 579.485 350.333 491.478 450.527 396.88C550.721 302.282 707.022 379.542 776.787 354.343C868.039 321.385 895.654 253.282 918.977 211.209" stroke="#EEEEEE" stroke-width="1.77359"/>
<path d="M-167.996 583.445C-134.559 543.392 -33.6769 477.575 102.36 534.738C272.407 606.191 369.226 518.183 469.42 423.586C569.614 328.988 725.915 406.247 795.68 381.049C886.932 348.09 914.547 279.987 937.87 237.915" stroke="#EEEEEE" stroke-width="1.77359"/>
</g>
</g>
<defs>
<clipPath id="clip0_15277_34851">
<rect width="343" height="227.706" fill="white"/>
</clipPath>
</defs>
</svg>
